<?xml version="1.0" encoding="UTF-8" standalone="no"?>
<!DOCTYPE svg PUBLIC "-//W3C//DTD SVG 1.1//EN" "http://www.w3.org/Graphics/SVG/1.1/DTD/svg11.dtd">
<svg width="100%" height="100%" viewBox="0 0 32 32" version="1.1" xmlns="http://www.w3.org/2000/svg" xmlns:xlink="http://www.w3.org/1999/xlink" xml:space="preserve" xmlns:serif="http://www.serif.com/" style="fill-rule:evenodd;clip-rule:evenodd;stroke-linejoin:round;stroke-miterlimit:1.41421;">
    <g transform="matrix(0.469248,0,0,0.469248,-107.895,-19.196)">
        <g transform="matrix(1.10854,0,0,1.10847,-29.0201,-9.29125)">
            <circle cx="263.788" cy="76.047" r="28.435" style="fill:rgb(12,179,215);"/>
        </g>
        <g transform="matrix(1,0,0,1,7.38146,-1.18693)">
            <circle cx="236.248" cy="99.819" r="3.404" style="fill:rgb(12,179,215);"/>
        </g>
        <g transform="matrix(1,0,0,1,56.5284,-33.27)">
            <circle cx="236.248" cy="99.819" r="3.404" style="fill:rgb(12,179,215);"/>
        </g>
        <g transform="matrix(1,0,0,1,39.9291,-52.1353)">
            <circle cx="236.248" cy="99.819" r="3.404" style="fill:rgb(12,179,215);"/>
        </g>
        <g id="logo" transform="matrix(1,0,0,1,211.997,8.18099)">
            <path d="M79.704,59.631C79.101,59.021 78.121,59.024 77.515,59.638L76.526,60.641L58.526,78.881C59.346,80.624 59.049,82.771 57.626,84.213C55.819,86.044 52.89,86.044 51.084,84.213C49.277,82.382 49.277,79.414 51.084,77.584C52.507,76.141 54.626,75.841 56.345,76.671L74.643,58.127C73.405,54.687 71.43,51.458 68.706,48.698C66.81,46.777 64.691,45.222 62.433,44.03L63.116,43.337C63.722,42.723 63.726,41.729 63.123,41.119C62.521,40.509 61.541,40.513 60.935,41.127L60.193,41.878L41.103,61.225C41.923,62.967 41.626,65.114 40.202,66.557C38.396,68.387 35.467,68.387 33.66,66.557C31.854,64.726 31.854,61.757 33.66,59.927C35.084,58.484 37.203,58.184 38.922,59.014L56.016,41.692C47.8,39.896 38.884,42.228 32.5,48.698C22.868,58.459 22.519,74.059 31.445,84.249L51.391,64.035C50.571,62.292 50.868,60.145 52.292,58.702C54.098,56.872 57.027,56.872 58.834,58.702C60.64,60.534 60.64,63.502 58.834,65.332C57.41,66.775 55.291,67.076 53.572,66.245L33.206,86.884L33.206,86.884C32.599,87.499 32.596,88.492 33.198,89.102C33.8,89.712 34.78,89.71 35.387,89.095L36.072,88.401C46.048,95.388 59.826,94.389 68.706,85.389C74.107,79.916 76.584,72.606 76.15,65.442L79.696,61.849C80.302,61.234 80.306,60.241 79.704,59.631Z" style="fill:white;"/>
        </g>
    </g>
</svg>
